<svg width="393" height="41" viewBox="0 0 393 41" fill="none" xmlns="http://www.w3.org/2000/svg">
<rect y="0.5" width="393" height="40" rx="20" fill="#F5F5F5"/>
<path d="M20.424 18.416V19.914H19.612V18.416H20.424ZM20.452 21.244C20.452 21.86 20.354 22.35 20.158 22.714C19.962 23.078 19.6633 23.3813 19.262 23.624C19.0753 23.736 18.87 23.8527 18.646 23.974C18.422 24.0953 18.2073 24.24 18.002 24.408C17.806 24.5667 17.6427 24.7627 17.512 24.996C17.3813 25.2293 17.316 25.5187 17.316 25.864C17.316 26.2653 17.4047 26.6013 17.582 26.872C17.7687 27.1427 18.0067 27.3433 18.296 27.474C18.5853 27.614 18.8933 27.684 19.22 27.684C19.7147 27.684 20.1627 27.544 20.564 27.264C20.9653 26.9933 21.2687 26.6573 21.474 26.256L22.118 26.676C21.866 27.2547 21.4693 27.698 20.928 28.006C20.3867 28.3233 19.8127 28.482 19.206 28.482C18.7487 28.482 18.31 28.384 17.89 28.188C17.47 27.992 17.1247 27.698 16.854 27.306C16.5927 26.914 16.462 26.4147 16.462 25.808C16.462 25.3133 16.5553 24.9167 16.742 24.618C16.9287 24.31 17.1667 24.0627 17.456 23.876C17.7453 23.68 18.0487 23.4933 18.366 23.316C18.5807 23.1947 18.786 23.0593 18.982 22.91C19.178 22.7607 19.3367 22.56 19.458 22.308C19.5793 22.0467 19.64 21.692 19.64 21.244H20.452ZM27.416 25.57C26.716 25.57 26.0813 25.43 25.512 25.15C24.9427 24.8607 24.4527 24.478 24.042 24.002C23.6313 23.526 23.314 22.9893 23.09 22.392C22.866 21.7853 22.754 21.1647 22.754 20.53C22.754 19.8673 22.8707 19.2373 23.104 18.64C23.3373 18.0333 23.664 17.4967 24.084 17.03C24.5133 16.554 25.0127 16.1807 25.582 15.91C26.1513 15.63 26.7673 15.49 27.43 15.49C28.1207 15.49 28.7507 15.6347 29.32 15.924C29.8893 16.2133 30.3793 16.6007 30.79 17.086C31.21 17.5713 31.5273 18.1127 31.742 18.71C31.966 19.3073 32.078 19.9187 32.078 20.544C32.078 21.216 31.952 21.8647 31.7 22.49C31.4573 23.106 31.1213 23.6473 30.692 24.114L31.854 25.5H30.888L30.146 24.618C29.7633 24.9167 29.3387 25.15 28.872 25.318C28.4147 25.486 27.9293 25.57 27.416 25.57ZM27.416 24.688C27.836 24.688 28.2233 24.6227 28.578 24.492C28.942 24.352 29.2687 24.1607 29.558 23.918L28.312 22.448H29.278L30.09 23.4C30.4167 23.008 30.664 22.56 30.832 22.056C31.0093 21.552 31.098 21.0433 31.098 20.53C31.098 19.9887 31.0093 19.4707 30.832 18.976C30.6547 18.4813 30.398 18.038 30.062 17.646C29.7353 17.254 29.348 16.946 28.9 16.722C28.452 16.4887 27.9573 16.372 27.416 16.372C26.856 16.372 26.3473 16.4933 25.89 16.736C25.442 16.9693 25.0547 17.2867 24.728 17.688C24.4107 18.08 24.1633 18.5233 23.986 19.018C23.818 19.5127 23.734 20.0167 23.734 20.53C23.734 21.0713 23.8227 21.5893 24 22.084C24.1773 22.5787 24.4293 23.022 24.756 23.414C25.0827 23.806 25.47 24.1187 25.918 24.352C26.3753 24.576 26.8747 24.688 27.416 24.688ZM33.6323 22.49V18.206H34.5843V22.322C34.5843 23.974 35.149 24.8 36.2783 24.8C36.8383 24.8 37.361 24.618 37.8463 24.254C38.341 23.89 38.6957 23.4047 38.9103 22.798V18.206H39.8623V24.352C39.8623 24.604 39.9743 24.7347 40.1983 24.744V25.5C40.0863 25.5187 39.9977 25.528 39.9323 25.528C39.8763 25.528 39.8157 25.528 39.7503 25.528C39.5543 25.5093 39.3863 25.4347 39.2463 25.304C39.1157 25.1733 39.0503 25.0147 39.0503 24.828L39.0223 23.848C38.705 24.4173 38.271 24.8607 37.7203 25.178C37.179 25.486 36.591 25.64 35.9563 25.64C34.407 25.64 33.6323 24.59 33.6323 22.49ZM45.1648 25.64C44.4648 25.64 43.8395 25.4673 43.2888 25.122C42.7382 24.7767 42.3042 24.3147 41.9868 23.736C41.6695 23.1573 41.5108 22.5227 41.5108 21.832C41.5108 21.1507 41.6648 20.5253 41.9728 19.956C42.2902 19.3867 42.7242 18.934 43.2748 18.598C43.8255 18.2527 44.4508 18.08 45.1508 18.08C45.8695 18.08 46.4995 18.2527 47.0408 18.598C47.5822 18.9433 48.0022 19.4007 48.3008 19.97C48.6088 20.53 48.7628 21.146 48.7628 21.818C48.7628 21.9673 48.7582 22.0933 48.7488 22.196H42.5048C42.5515 22.7187 42.7008 23.1853 42.9528 23.596C43.2048 23.9973 43.5268 24.3193 43.9188 24.562C44.3108 24.7953 44.7402 24.912 45.2068 24.912C45.6828 24.912 46.1308 24.7907 46.5508 24.548C46.9708 24.3053 47.2695 23.988 47.4468 23.596L48.2728 23.82C48.1235 24.1747 47.8902 24.492 47.5728 24.772C47.2648 25.0427 46.9055 25.2573 46.4948 25.416C46.0842 25.5653 45.6408 25.64 45.1648 25.64ZM42.4768 21.51H47.8668C47.8295 20.9873 47.6848 20.5253 47.4328 20.124C47.1808 19.7133 46.8588 19.396 46.4668 19.172C46.0748 18.9387 45.6408 18.822 45.1648 18.822C44.6888 18.822 44.2548 18.9387 43.8628 19.172C43.4708 19.396 43.1488 19.7133 42.8968 20.124C42.6542 20.5253 42.5142 20.9873 42.4768 21.51ZM45.4448 16.82L44.8148 16.582L45.6408 15.28H46.6488L45.4448 16.82ZM53.31 21.874C53.31 21.1833 53.45 20.5533 53.73 19.984C54.0193 19.4053 54.416 18.9433 54.92 18.598C55.424 18.2527 55.998 18.08 56.642 18.08C57.2487 18.08 57.79 18.2433 58.266 18.57C58.7513 18.8873 59.1293 19.2747 59.4 19.732V15.28H60.352V24.352C60.352 24.604 60.464 24.7347 60.688 24.744V25.5C60.5013 25.528 60.3567 25.5373 60.254 25.528C60.0487 25.5187 59.8713 25.444 59.722 25.304C59.582 25.1547 59.512 24.9867 59.512 24.8V24.086C59.2227 24.562 58.8307 24.94 58.336 25.22C57.8413 25.5 57.328 25.64 56.796 25.64C56.292 25.64 55.8253 25.5373 55.396 25.332C54.9667 25.1267 54.5933 24.8467 54.276 24.492C53.968 24.1373 53.73 23.736 53.562 23.288C53.394 22.8307 53.31 22.3593 53.31 21.874ZM59.4 22.994V20.74C59.2787 20.404 59.0827 20.1007 58.812 19.83C58.5413 19.55 58.2333 19.3307 57.888 19.172C57.552 19.004 57.216 18.92 56.88 18.92C56.3573 18.92 55.9 19.0647 55.508 19.354C55.1253 19.634 54.8267 20.0027 54.612 20.46C54.3973 20.908 54.29 21.3793 54.29 21.874C54.29 22.3967 54.4067 22.882 54.64 23.33C54.8827 23.778 55.2093 24.1373 55.62 24.408C56.0307 24.6693 56.4927 24.8 57.006 24.8C57.3233 24.8 57.6547 24.7207 58 24.562C58.3547 24.394 58.6627 24.1747 58.924 23.904C59.1947 23.6333 59.3533 23.33 59.4 22.994ZM65.659 25.64C64.959 25.64 64.3337 25.4673 63.783 25.122C63.2323 24.7767 62.7983 24.3147 62.481 23.736C62.1637 23.1573 62.005 22.5227 62.005 21.832C62.005 21.1507 62.159 20.5253 62.467 19.956C62.7843 19.3867 63.2183 18.934 63.769 18.598C64.3197 18.2527 64.945 18.08 65.645 18.08C66.3637 18.08 66.9937 18.2527 67.535 18.598C68.0763 18.9433 68.4963 19.4007 68.795 19.97C69.103 20.53 69.257 21.146 69.257 21.818C69.257 21.9673 69.2523 22.0933 69.243 22.196H62.999C63.0457 22.7187 63.195 23.1853 63.447 23.596C63.699 23.9973 64.021 24.3193 64.413 24.562C64.805 24.7953 65.2343 24.912 65.701 24.912C66.177 24.912 66.625 24.7907 67.045 24.548C67.465 24.3053 67.7637 23.988 67.941 23.596L68.767 23.82C68.6177 24.1747 68.3843 24.492 68.067 24.772C67.759 25.0427 67.3997 25.2573 66.989 25.416C66.5783 25.5653 66.135 25.64 65.659 25.64ZM62.971 21.51H68.361C68.3237 20.9873 68.179 20.5253 67.927 20.124C67.675 19.7133 67.353 19.396 66.961 19.172C66.569 18.9387 66.135 18.822 65.659 18.822C65.183 18.822 64.749 18.9387 64.357 19.172C63.965 19.396 63.643 19.7133 63.391 20.124C63.1483 20.5253 63.0083 20.9873 62.971 21.51ZM73.1198 25.64C72.5224 25.64 71.9671 25.542 71.4538 25.346C70.9498 25.1407 70.5064 24.842 70.1238 24.45L70.5158 23.778C70.9264 24.1607 71.3371 24.4407 71.7478 24.618C72.1678 24.786 72.6111 24.87 73.0778 24.87C73.6378 24.87 74.0951 24.758 74.4498 24.534C74.8138 24.3007 74.9958 23.9693 74.9958 23.54C74.9958 23.2507 74.9071 23.0313 74.7298 22.882C74.5618 22.7233 74.3144 22.5973 73.9878 22.504C73.6704 22.4107 73.2878 22.3033 72.8398 22.182C72.3358 22.042 71.9111 21.8973 71.5658 21.748C71.2298 21.5893 70.9731 21.3933 70.7958 21.16C70.6278 20.9173 70.5438 20.6047 70.5438 20.222C70.5438 19.7553 70.6604 19.3633 70.8938 19.046C71.1364 18.7287 71.4631 18.4907 71.8738 18.332C72.2938 18.164 72.7604 18.08 73.2738 18.08C73.8338 18.08 74.3284 18.1687 74.7578 18.346C75.1871 18.5233 75.5371 18.7707 75.8078 19.088L75.3458 19.732C75.0938 19.4333 74.7811 19.214 74.4078 19.074C74.0438 18.9247 73.6471 18.85 73.2178 18.85C72.9191 18.85 72.6344 18.892 72.3638 18.976C72.0931 19.0507 71.8691 19.1813 71.6918 19.368C71.5238 19.5453 71.4398 19.7927 71.4398 20.11C71.4398 20.502 71.5844 20.7727 71.8738 20.922C72.1631 21.0713 72.6018 21.23 73.1898 21.398C73.7404 21.5473 74.2211 21.6967 74.6318 21.846C75.0424 21.9953 75.3598 22.196 75.5838 22.448C75.8078 22.6907 75.9198 23.0313 75.9198 23.47C75.9198 24.1513 75.6631 24.6833 75.1498 25.066C74.6364 25.4487 73.9598 25.64 73.1198 25.64ZM80.6434 25.64C79.9434 25.64 79.318 25.4673 78.7674 25.122C78.2167 24.7767 77.7827 24.3147 77.4654 23.736C77.148 23.1573 76.9894 22.5227 76.9894 21.832C76.9894 21.1507 77.1434 20.5253 77.4514 19.956C77.7687 19.3867 78.2027 18.934 78.7534 18.598C79.304 18.2527 79.9294 18.08 80.6294 18.08C81.348 18.08 81.978 18.2527 82.5194 18.598C83.0607 18.9433 83.4807 19.4007 83.7794 19.97C84.0874 20.53 84.2414 21.146 84.2414 21.818C84.2414 21.9673 84.2367 22.0933 84.2274 22.196H77.9834C78.03 22.7187 78.1794 23.1853 78.4314 23.596C78.6834 23.9973 79.0054 24.3193 79.3974 24.562C79.7894 24.7953 80.2187 24.912 80.6854 24.912C81.1614 24.912 81.6094 24.7907 82.0294 24.548C82.4494 24.3053 82.748 23.988 82.9254 23.596L83.7514 23.82C83.602 24.1747 83.3687 24.492 83.0514 24.772C82.7434 25.0427 82.384 25.2573 81.9734 25.416C81.5627 25.5653 81.1194 25.64 80.6434 25.64ZM77.9554 21.51H83.3454C83.308 20.9873 83.1634 20.5253 82.9114 20.124C82.6594 19.7133 82.3374 19.396 81.9454 19.172C81.5534 18.9387 81.1194 18.822 80.6434 18.822C80.1674 18.822 79.7334 18.9387 79.3414 19.172C78.9494 19.396 78.6274 19.7133 78.3754 20.124C78.1327 20.5253 77.9927 20.9873 77.9554 21.51ZM85.1222 23.4C85.1222 22.952 85.2528 22.5647 85.5142 22.238C85.7755 21.902 86.1348 21.6407 86.5922 21.454C87.0588 21.2673 87.5955 21.174 88.2022 21.174C88.5568 21.174 88.9255 21.2067 89.3082 21.272C89.6908 21.328 90.0315 21.4073 90.3302 21.51V20.894C90.3302 20.278 90.1482 19.788 89.7842 19.424C89.4202 19.06 88.9162 18.878 88.2722 18.878C87.8895 18.878 87.5068 18.9527 87.1242 19.102C86.7415 19.242 86.3448 19.452 85.9342 19.732L85.5702 19.06C86.0462 18.7333 86.5128 18.4907 86.9702 18.332C87.4275 18.164 87.8942 18.08 88.3702 18.08C89.2662 18.08 89.9755 18.3367 90.4982 18.85C91.0208 19.3633 91.2822 20.0727 91.2822 20.978V24.352C91.2822 24.604 91.3988 24.7347 91.6322 24.744V25.5C91.4268 25.528 91.2822 25.5373 91.1982 25.528C90.9648 25.5187 90.7875 25.444 90.6662 25.304C90.5448 25.164 90.4795 25.0147 90.4702 24.856L90.4562 24.324C90.1295 24.744 89.7048 25.0707 89.1822 25.304C88.6595 25.528 88.1275 25.64 87.5862 25.64C87.1102 25.64 86.6855 25.542 86.3122 25.346C85.9388 25.1407 85.6448 24.87 85.4302 24.534C85.2248 24.1887 85.1222 23.8107 85.1222 23.4ZM90.0082 23.96C90.2228 23.708 90.3302 23.4747 90.3302 23.26V22.196C89.6862 21.944 89.0142 21.818 88.3142 21.818C87.6328 21.818 87.0822 21.9533 86.6622 22.224C86.2422 22.4947 86.0322 22.8633 86.0322 23.33C86.0322 23.7313 86.1862 24.0953 86.4942 24.422C86.8115 24.7487 87.2502 24.912 87.8102 24.912C88.2675 24.912 88.6922 24.8233 89.0842 24.646C89.4855 24.4687 89.7935 24.24 90.0082 23.96ZM95.7331 25.64C95.1357 25.64 94.5804 25.542 94.0671 25.346C93.5631 25.1407 93.1197 24.842 92.7371 24.45L93.1291 23.778C93.5397 24.1607 93.9504 24.4407 94.3611 24.618C94.7811 24.786 95.2244 24.87 95.6911 24.87C96.2511 24.87 96.7084 24.758 97.0631 24.534C97.4271 24.3007 97.6091 23.9693 97.6091 23.54C97.6091 23.2507 97.5204 23.0313 97.3431 22.882C97.1751 22.7233 96.9277 22.5973 96.6011 22.504C96.2837 22.4107 95.9011 22.3033 95.4531 22.182C94.9491 22.042 94.5244 21.8973 94.1791 21.748C93.8431 21.5893 93.5864 21.3933 93.4091 21.16C93.2411 20.9173 93.1571 20.6047 93.1571 20.222C93.1571 19.7553 93.2737 19.3633 93.5071 19.046C93.7497 18.7287 94.0764 18.4907 94.4871 18.332C94.9071 18.164 95.3737 18.08 95.8871 18.08C96.4471 18.08 96.9417 18.1687 97.3711 18.346C97.8004 18.5233 98.1504 18.7707 98.4211 19.088L97.9591 19.732C97.7071 19.4333 97.3944 19.214 97.0211 19.074C96.6571 18.9247 96.2604 18.85 95.8311 18.85C95.5324 18.85 95.2477 18.892 94.9771 18.976C94.7064 19.0507 94.4824 19.1813 94.3051 19.368C94.1371 19.5453 94.0531 19.7927 94.0531 20.11C94.0531 20.502 94.1977 20.7727 94.4871 20.922C94.7764 21.0713 95.2151 21.23 95.8031 21.398C96.3537 21.5473 96.8344 21.6967 97.2451 21.846C97.6557 21.9953 97.9731 22.196 98.1971 22.448C98.4211 22.6907 98.5331 23.0313 98.5331 23.47C98.5331 24.1513 98.2764 24.6833 97.7631 25.066C97.2497 25.4487 96.5731 25.64 95.7331 25.64ZM107.245 25.64C106.676 25.64 106.148 25.4953 105.663 25.206C105.178 24.9073 104.8 24.534 104.529 24.086V25.5H103.675V15.28H104.627V19.732C104.954 19.2373 105.346 18.8407 105.803 18.542C106.26 18.234 106.792 18.08 107.399 18.08C107.912 18.08 108.37 18.1873 108.771 18.402C109.182 18.6167 109.532 18.906 109.821 19.27C110.11 19.6247 110.33 20.0307 110.479 20.488C110.628 20.936 110.703 21.398 110.703 21.874C110.703 22.5553 110.549 23.1807 110.241 23.75C109.942 24.3193 109.532 24.7767 109.009 25.122C108.486 25.4673 107.898 25.64 107.245 25.64ZM107.021 24.8C107.553 24.8 108.02 24.66 108.421 24.38C108.832 24.1 109.154 23.7407 109.387 23.302C109.62 22.854 109.737 22.378 109.737 21.874C109.737 21.3607 109.625 20.88 109.401 20.432C109.186 19.984 108.883 19.62 108.491 19.34C108.099 19.06 107.646 18.92 107.133 18.92C106.564 18.92 106.06 19.102 105.621 19.466C105.192 19.83 104.86 20.2547 104.627 20.74V23.008C104.674 23.344 104.828 23.6473 105.089 23.918C105.35 24.1887 105.658 24.4033 106.013 24.562C106.368 24.7207 106.704 24.8 107.021 24.8ZM112.246 22.49V18.206H113.198V22.322C113.198 23.974 113.762 24.8 114.892 24.8C115.452 24.8 115.974 24.618 116.46 24.254C116.954 23.89 117.309 23.4047 117.524 22.798V18.206H118.476V24.352C118.476 24.604 118.588 24.7347 118.812 24.744V25.5C118.7 25.5187 118.611 25.528 118.546 25.528C118.49 25.528 118.429 25.528 118.364 25.528C118.168 25.5093 118 25.4347 117.86 25.304C117.729 25.1733 117.664 25.0147 117.664 24.828L117.636 23.848C117.318 24.4173 116.884 24.8607 116.334 25.178C115.792 25.486 115.204 25.64 114.57 25.64C113.02 25.64 112.246 24.59 112.246 22.49ZM123.022 25.64C122.425 25.64 121.869 25.542 121.356 25.346C120.852 25.1407 120.409 24.842 120.026 24.45L120.418 23.778C120.829 24.1607 121.239 24.4407 121.65 24.618C122.07 24.786 122.513 24.87 122.98 24.87C123.54 24.87 123.997 24.758 124.352 24.534C124.716 24.3007 124.898 23.9693 124.898 23.54C124.898 23.2507 124.809 23.0313 124.632 22.882C124.464 22.7233 124.217 22.5973 123.89 22.504C123.573 22.4107 123.19 22.3033 122.742 22.182C122.238 22.042 121.813 21.8973 121.468 21.748C121.132 21.5893 120.875 21.3933 120.698 21.16C120.53 20.9173 120.446 20.6047 120.446 20.222C120.446 19.7553 120.563 19.3633 120.796 19.046C121.039 18.7287 121.365 18.4907 121.776 18.332C122.196 18.164 122.663 18.08 123.176 18.08C123.736 18.08 124.231 18.1687 124.66 18.346C125.089 18.5233 125.439 18.7707 125.71 19.088L125.248 19.732C124.996 19.4333 124.683 19.214 124.31 19.074C123.946 18.9247 123.549 18.85 123.12 18.85C122.821 18.85 122.537 18.892 122.266 18.976C121.995 19.0507 121.771 19.1813 121.594 19.368C121.426 19.5453 121.342 19.7927 121.342 20.11C121.342 20.502 121.487 20.7727 121.776 20.922C122.065 21.0713 122.504 21.23 123.092 21.398C123.643 21.5473 124.123 21.6967 124.534 21.846C124.945 21.9953 125.262 22.196 125.486 22.448C125.71 22.6907 125.822 23.0313 125.822 23.47C125.822 24.1513 125.565 24.6833 125.052 25.066C124.539 25.4487 123.862 25.64 123.022 25.64ZM130.56 25.64C129.85 25.64 129.22 25.4673 128.67 25.122C128.119 24.7673 127.685 24.3053 127.368 23.736C127.05 23.1573 126.892 22.5227 126.892 21.832C126.892 21.1413 127.046 20.516 127.354 19.956C127.662 19.3867 128.091 18.934 128.642 18.598C129.192 18.2527 129.827 18.08 130.546 18.08C131.227 18.08 131.824 18.2387 132.338 18.556C132.86 18.864 133.252 19.284 133.514 19.816L132.59 20.11C132.384 19.7367 132.095 19.4473 131.722 19.242C131.358 19.0273 130.952 18.92 130.504 18.92C130.009 18.92 129.561 19.046 129.16 19.298C128.768 19.55 128.45 19.9 128.208 20.348C127.974 20.7867 127.858 21.2813 127.858 21.832C127.858 22.3827 127.979 22.882 128.222 23.33C128.464 23.778 128.786 24.1373 129.188 24.408C129.589 24.6693 130.032 24.8 130.518 24.8C130.835 24.8 131.143 24.744 131.442 24.632C131.74 24.52 131.997 24.3707 132.212 24.184C132.426 23.988 132.571 23.778 132.646 23.554L133.584 23.834C133.453 24.1793 133.238 24.492 132.94 24.772C132.641 25.0427 132.286 25.2573 131.876 25.416C131.465 25.5653 131.026 25.64 130.56 25.64ZM134.491 23.4C134.491 22.952 134.622 22.5647 134.883 22.238C135.145 21.902 135.504 21.6407 135.961 21.454C136.428 21.2673 136.965 21.174 137.571 21.174C137.926 21.174 138.295 21.2067 138.677 21.272C139.06 21.328 139.401 21.4073 139.699 21.51V20.894C139.699 20.278 139.517 19.788 139.153 19.424C138.789 19.06 138.285 18.878 137.641 18.878C137.259 18.878 136.876 18.9527 136.493 19.102C136.111 19.242 135.714 19.452 135.303 19.732L134.939 19.06C135.415 18.7333 135.882 18.4907 136.339 18.332C136.797 18.164 137.263 18.08 137.739 18.08C138.635 18.08 139.345 18.3367 139.867 18.85C140.39 19.3633 140.651 20.0727 140.651 20.978V24.352C140.651 24.604 140.768 24.7347 141.001 24.744V25.5C140.796 25.528 140.651 25.5373 140.567 25.528C140.334 25.5187 140.157 25.444 140.035 25.304C139.914 25.164 139.849 25.0147 139.839 24.856L139.825 24.324C139.499 24.744 139.074 25.0707 138.551 25.304C138.029 25.528 137.497 25.64 136.955 25.64C136.479 25.64 136.055 25.542 135.681 25.346C135.308 25.1407 135.014 24.87 134.799 24.534C134.594 24.1887 134.491 23.8107 134.491 23.4ZM139.377 23.96C139.592 23.708 139.699 23.4747 139.699 23.26V22.196C139.055 21.944 138.383 21.818 137.683 21.818C137.002 21.818 136.451 21.9533 136.031 22.224C135.611 22.4947 135.401 22.8633 135.401 23.33C135.401 23.7313 135.555 24.0953 135.863 24.422C136.181 24.7487 136.619 24.912 137.179 24.912C137.637 24.912 138.061 24.8233 138.453 24.646C138.855 24.4687 139.163 24.24 139.377 23.96ZM146.348 19.046C145.714 19.0647 145.154 19.242 144.668 19.578C144.192 19.914 143.856 20.376 143.66 20.964V25.5H142.708V18.206H143.604V19.956C143.856 19.4427 144.188 19.0273 144.598 18.71C145.018 18.3927 145.462 18.2153 145.928 18.178C146.022 18.1687 146.101 18.164 146.166 18.164C146.232 18.164 146.292 18.1687 146.348 18.178V19.046ZM148.722 22.672C148.722 22.056 148.816 21.566 149.002 21.202C149.198 20.838 149.502 20.5347 149.912 20.292C150.099 20.18 150.3 20.0633 150.514 19.942C150.738 19.8207 150.953 19.6807 151.158 19.522C151.364 19.354 151.532 19.1533 151.662 18.92C151.793 18.6867 151.858 18.3973 151.858 18.052C151.858 17.6507 151.765 17.3147 151.578 17.044C151.401 16.7733 151.163 16.5727 150.864 16.442C150.575 16.302 150.272 16.232 149.954 16.232C149.46 16.232 149.012 16.372 148.61 16.652C148.209 16.9227 147.906 17.2587 147.7 17.66L147.042 17.24C147.304 16.6613 147.705 16.218 148.246 15.91C148.788 15.5927 149.362 15.434 149.968 15.434C150.426 15.434 150.864 15.532 151.284 15.728C151.704 15.924 152.045 16.218 152.306 16.61C152.568 17.002 152.698 17.5013 152.698 18.108C152.698 18.6027 152.605 19.004 152.418 19.312C152.241 19.6107 152.008 19.858 151.718 20.054C151.429 20.2407 151.126 20.4227 150.808 20.6C150.584 20.7213 150.374 20.8567 150.178 21.006C149.992 21.1553 149.838 21.3607 149.716 21.622C149.595 21.874 149.534 22.224 149.534 22.672H148.722ZM148.736 25.5V24.002H149.562V25.5H148.736Z" fill="#A2A2A2"/>
<path d="M368.5 22.5H367.71L367.43 22.23C368.63 20.83 369.25 18.92 368.91 16.89C368.44 14.11 366.12 11.89 363.32 11.55C359.09 11.03 355.53 14.59 356.05 18.82C356.39 21.62 358.61 23.94 361.39 24.41C363.42 24.75 365.33 24.13 366.73 22.93L367 23.21V24L371.25 28.25C371.66 28.66 372.33 28.66 372.74 28.25C373.15 27.84 373.15 27.17 372.74 26.76L368.5 22.5ZM362.5 22.5C360.01 22.5 358 20.49 358 18C358 15.51 360.01 13.5 362.5 13.5C364.99 13.5 367 15.51 367 18C367 20.49 364.99 22.5 362.5 22.5Z" fill="#A2A2A2"/>
</svg>
